<?xml version="1.0" encoding="UTF-8"?>
<svg version="1.1" xmlns="http://www.w3.org/2000/svg" width="1004" height="650">
<path d="M0 0 C331.32 0 662.64 0 1004 0 C1004 214.5 1004 429 1004 650 C672.68 650 341.36 650 0 650 C0 435.5 0 221 0 0 Z " fill="#315244" transform="translate(0,0)"/>
<path d="M0 0 C0.99555908 0.06856201 1.99111816 0.13712402 3.0168457 0.20776367 C12.21512704 0.79969261 21.38849605 1.09289373 30.60546875 1.17578125 C31.70811066 1.18769501 32.81075256 1.19960876 33.94680786 1.21188354 C38.51134372 1.260617 43.07560455 1.30817601 47.64038086 1.32592773 C69.79111596 1.42823696 87.10259799 3.42492782 104.1015625 18.94921875 C106 21 106 21 107 24 C107.66 24 108.32 24 109 24 C110.13829431 26.13962808 111.26034158 28.28558999 112.375 30.4375 C112.69210937 31.02982422 113.00921875 31.62214844 113.3359375 32.23242188 C120.90297361 46.97237763 120.07966826 67.34999872 115.53515625 82.921875 C111.56067614 94.07850752 105.96561792 104.77934655 100.01342773 114.99438477 C96.25875987 122.42502715 96.68232448 134.89805132 99.0625 142.8125 C100.92256067 147.37095854 103.56237334 151.54388363 106.09375 155.75390625 C118.2895297 176.52171963 122.12419813 196.40540643 116 220 C111.38948748 235.21638014 103.66794121 247.43745591 89.5625 255.25 C70.69975988 263.62749604 51.014322 262.49709602 30.85113525 262.2746582 C26.68729834 262.23319329 22.52336037 262.21535564 18.359375 262.1953125 C10.23931064 262.15285373 2.11973125 262.08489838 -6 262 C-5.22265713 260.71375514 -4.43975553 259.43086868 -3.65454102 258.14941406 C-3.00147728 257.07726654 -3.00147728 257.07726654 -2.33522034 255.98345947 C-0.54825896 253.32894219 1.47057302 251.61087065 4.0625 249.75 C4.89910156 249.12609375 5.73570312 248.5021875 6.59765625 247.859375 C17.67947771 241.80317865 28.07926747 241.42885495 40.375 241.4375 C58.02541916 241.41078932 77.77947425 240.88597701 91.3203125 227.87890625 C100.652079 217.44034883 102.67040765 204.59724228 102 191 C100.38423625 176.9489912 93.01492094 162.92280122 82 154 C73.5743162 148.2125563 65.17742574 143.4457722 55.0625 141.375 C53.91910156 141.13523437 52.77570312 140.89546875 51.59765625 140.6484375 C43.27494765 139.1483619 35.12944131 138.73827246 26.68945312 138.5703125 C19.94498481 138.33555218 15.08812163 137.29629557 9.5625 133.1875 C8 131 8 131 7.4375 128.0625 C8.18405243 123.9979368 9.83986506 122.57220286 13 120 C16.29490609 118.90169797 18.82330791 118.84255137 22.29296875 118.7890625 C23.55568604 118.76287842 24.81840332 118.73669434 26.11938477 118.7097168 C27.1167717 118.68982193 27.1167717 118.68982193 28.13430786 118.66952515 C39.66892688 118.41938752 50.79147607 117.9399407 62 115 C63.16273438 114.71125 64.32546875 114.4225 65.5234375 114.125 C76.82204587 111.02240731 84.76564477 106.04983822 91 96 C99.17786994 81.16572429 104.88115945 64.42169693 100.875 47.4375 C97.61394055 36.92627117 92.57762171 28.13324821 82.72265625 22.7578125 C71.55423459 17.79809202 59.1951015 17.75159609 47.1875 17.5625 C15.74618505 16.72016738 15.74618505 16.72016738 5 7 C4.09320129 5.80791124 3.21232303 4.59579057 2.35424805 3.36816406 C1.91122849 2.73751038 1.46820892 2.10685669 1.01176453 1.45709229 C0.67788223 0.97625183 0.34399994 0.49541138 0 0 Z " fill="#EFCD93" transform="translate(482,193)"/>
<path d="M0 0 C4.31423405 1.79759752 6.35434421 4.47868578 9 8.25 C9.44472656 8.86617187 9.88945312 9.48234375 10.34765625 10.1171875 C23.11832506 30.19096049 19.73092172 62.74129763 16 85.25 C15.70150146 87.10842529 15.70150146 87.10842529 15.39697266 89.00439453 C8.84376172 129.56247656 8.84376172 129.56247656 4 139.25 C2.02 139.25 0.04 139.25 -2 139.25 C-9.0264767 121.24725199 -12.72005315 102.23366324 -16 83.25 C-16.16661133 82.32783691 -16.33322266 81.40567383 -16.50488281 80.45556641 C-20.35926421 58.76170343 -24.19950504 28.73123321 -12.125 9.0625 C-5.55568842 0.46297403 -5.55568842 0.46297403 0 0 Z " fill="#E9CB91" transform="translate(441,194.75)"/>
<path d="M0 0 C3.29159316 -0.05790353 6.58305603 -0.09356261 9.875 -0.125 C10.81214844 -0.14175781 11.74929688 -0.15851563 12.71484375 -0.17578125 C13.61074219 -0.18222656 14.50664062 -0.18867188 15.4296875 -0.1953125 C16.25710449 -0.20578613 17.08452148 -0.21625977 17.93701172 -0.22705078 C20 0 20 0 22 2 C22.25168228 4.01809597 22.25168228 4.01809597 22.25396729 6.54820251 C22.25960693 7.50582993 22.26524658 8.46345734 22.27105713 9.45010376 C22.26700867 10.50418427 22.26296021 11.55826477 22.25878906 12.64428711 C22.2622937 13.75166733 22.26579834 14.85904755 22.26940918 15.99998474 C22.27824169 19.67583407 22.27237151 23.35149232 22.265625 27.02734375 C22.26697131 29.57320696 22.26891155 32.11906992 22.27142334 34.66493225 C22.27437675 40.00736164 22.27026004 45.34972202 22.26074219 50.69213867 C22.24986284 56.87013873 22.25337869 63.04800674 22.264395 69.22600359 C22.27456256 75.16551243 22.27348867 81.10498022 22.26763153 87.04449654 C22.26629448 89.57353293 22.26794469 92.10257267 22.27259064 94.63160515 C22.2776536 98.16326779 22.26994836 101.69467482 22.25878906 105.22631836 C22.26283752 106.27837463 22.26688599 107.33043091 22.27105713 108.41436768 C22.26541748 109.37481491 22.25977783 110.33526215 22.25396729 111.32481384 C22.25321323 112.16012603 22.25245918 112.99543821 22.25168228 113.85606289 C22 116 22 116 20 119 C17.84521484 119.34057617 17.84521484 119.34057617 15.2109375 119.29296875 C14.26992188 119.28330078 13.32890625 119.27363281 12.359375 119.26367188 C11.37453125 119.23853516 10.3896875 119.21339844 9.375 119.1875 C7.88613281 119.16719727 7.88613281 119.16719727 6.3671875 119.14648438 C3.91091928 119.11105743 1.45572715 119.06166196 -1 119 C-1.0233389 103.77964009 -1.04098406 88.55928101 -1.05181217 73.33890724 C-1.05697302 66.27215604 -1.0640117 59.20541595 -1.07543945 52.13867188 C-1.08645413 45.32412994 -1.09227766 38.50959956 -1.09487724 31.69504929 C-1.09673079 29.08982537 -1.10035007 26.48460211 -1.10573006 23.87938309 C-1.11294557 20.24200299 -1.11399072 16.60467121 -1.11352539 12.96728516 C-1.11712067 11.8804393 -1.12071594 10.79359344 -1.12442017 9.67381287 C-1.1230455 8.68660751 -1.12167084 7.69940216 -1.12025452 6.68228149 C-1.12117631 5.82132685 -1.1220981 4.9603722 -1.12304783 4.07332802 C-1 2 -1 2 0 0 Z " fill="#F4E4C5" transform="translate(430,338)"/>
<path d="M0 0 C0.66 0 1.32 0 2 0 C1.979375 0.804375 1.95875 1.60875 1.9375 2.4375 C1.70366379 4.93354885 1.70366379 4.93354885 3 6 C4.2342854 12.78856971 5.17825806 21.64348388 2 28 C1.01 28 0.02 28 -1 28 C-0.690625 28.8971875 -0.690625 28.8971875 -0.375 29.8125 C0 32 0 32 -2 35 C-2.2236068 37.9254644 -2.2236068 37.9254644 -1 40 C-1.60760482 42.3494053 -2.27129528 44.68529088 -3 47 C-4.32 47 -5.64 47 -7 47 C-5.515 47.99 -5.515 47.99 -4 49 C-5.72561447 57.41237056 -12.40370544 63.19546199 -19.25 67.8125 C-33.35044952 76.22602789 -48.60199307 77.3079852 -64.60546875 77.1953125 C-66.18158283 77.19157384 -67.75769927 77.18873091 -69.33381653 77.18673706 C-73.44534937 77.17916766 -77.55673678 77.15957822 -81.66821289 77.1373291 C-85.87839797 77.11672494 -90.08860696 77.10770445 -94.29882812 77.09765625 C-102.53261819 77.07632473 -110.76629091 77.04227158 -119 77 C-118.22265713 75.71375514 -117.43975553 74.43086868 -116.65454102 73.14941406 C-116.00147728 72.07726654 -116.00147728 72.07726654 -115.33522034 70.98345947 C-113.54825896 68.32894219 -111.52942698 66.61087065 -108.9375 64.75 C-108.10089844 64.12609375 -107.26429688 63.5021875 -106.40234375 62.859375 C-95.32052229 56.80317865 -84.92073253 56.42885495 -72.625 56.4375 C-54.9539338 56.41075807 -35.40226633 55.84168741 -21.74609375 42.98046875 C-19.22457501 40.12049112 -17.24074859 37.01205847 -15.32421875 33.72265625 C-14.88722656 33.15417969 -14.45023438 32.58570313 -14 32 C-13.01 32 -12.02 32 -11 32 C-10.814375 30.205625 -10.814375 30.205625 -10.625 28.375 C-10.1838261 24.71585177 -9.16550807 21.4965242 -8 18 C-8.495 17.01 -8.495 17.01 -9 16 C-8.61762413 12.49488787 -8.1159921 9.34797629 -7 6 C-5.01924973 4.63823419 -3.01920337 3.30406884 -1 2 C-0.67 1.34 -0.34 0.68 0 0 Z " fill="#F6E4C5" transform="translate(595,378)"/>
<path d="M0 0 C0.99555908 0.06856201 1.99111816 0.13712402 3.0168457 0.20776367 C12.21512704 0.79969261 21.38849605 1.09289373 30.60546875 1.17578125 C31.70811066 1.18769501 32.81075256 1.19960876 33.94680786 1.21188354 C38.51134372 1.260617 43.07560455 1.30817601 47.64038086 1.32592773 C69.79111596 1.42823696 87.10259799 3.42492782 104.1015625 18.94921875 C106 21 106 21 107 24 C107.66 24 108.32 24 109 24 C110.13829431 26.13962808 111.26034158 28.28558999 112.375 30.4375 C112.69210937 31.02982422 113.00921875 31.62214844 113.3359375 32.23242188 C117.91273725 41.14764639 118.28010799 49.66541712 118.125 59.5625 C118.11597656 60.66658203 118.10695313 61.77066406 118.09765625 62.90820312 C118.07430128 65.6057017 118.04155054 68.30273077 118 71 C117.67 71 117.34 71 117 71 C116.93941406 69.83082031 116.87882813 68.66164063 116.81640625 67.45703125 C116.73195966 65.90884386 116.64731375 64.36066732 116.5625 62.8125 C116.52318359 62.04357422 116.48386719 61.27464844 116.44335938 60.48242188 C116.22492966 56.56748925 115.91307892 52.82879312 115 49 C114.505 49.99 114.505 49.99 114 51 C113.01 51 112.02 51 111 51 C110.855625 51.804375 110.71125 52.60875 110.5625 53.4375 C110 56 110 56 109 57 C108.76636119 58.84891946 108.58696365 60.70488031 108.4375 62.5625 C108.31181641 64.08037109 108.31181641 64.08037109 108.18359375 65.62890625 C108.12300781 66.41136719 108.06242188 67.19382812 108 68 C107.34 67.67 106.68 67.34 106 67 C105.67386719 68.0621875 105.34773437 69.124375 105.01171875 70.21875 C98.42223558 91.57776442 98.42223558 91.57776442 95 95 C94.01 95 93.02 95 92 95 C93.05479357 92.36058568 94.11274153 89.72279723 95.18359375 87.08984375 C101.20905712 71.94171622 104.9903104 57.80085648 99 42 C94.9314921 32.6335597 89.77916003 25.89149489 80.3125 21.6875 C69.5877454 17.97760492 58.42459614 17.73946214 47.1875 17.5625 C15.74618505 16.72016738 15.74618505 16.72016738 5 7 C4.09320129 5.80791124 3.21232303 4.59579057 2.35424805 3.36816406 C1.6897187 2.42218353 1.6897187 2.42218353 1.01176453 1.45709229 C0.67788223 0.97625183 0.34399994 0.49541138 0 0 Z " fill="#E5C28C" transform="translate(482,193)"/>
<path d="M0 0 C-0.57151256 4.26683339 -1.2808298 8.45777306 -2.13291931 12.67974854 C-4.13358998 22.89917525 -4.51761013 32.85921577 -4.4375 43.25 C-4.43379395 44.11983521 -4.43008789 44.98967041 -4.42626953 45.88586426 C-4.27910097 70.34148891 -0.19360762 93.56733209 5.35742188 117.32519531 C5.53138489 118.07274582 5.7053479 118.82029633 5.88458252 119.59049988 C6.2129024 120.99411586 6.5453027 122.39678602 6.88250732 123.79829407 C7.63531126 127.00630164 8 129.672476 8 133 C7.01 133 6.02 133 5 133 C-10.68867069 99.28360053 -28.50197073 58.76118691 -17 21 C-14.36386105 14.11811701 -8.53902317 0 0 0 Z " fill="#E6CA90" transform="translate(423,200)"/>
<path d="M0 0 C5.23305807 0.99188682 7.89595577 3.78367325 11 8 C24.11282213 31.5026187 21.0149473 56.73310092 14.3125 81.875 C13.57271303 84.26552731 12.80460212 86.63153104 12 89 C11.69433105 89.91007812 11.38866211 90.82015625 11.07373047 91.7578125 C6.58524358 104.99497401 1.71329223 117.72583355 -5 130 C-5.99 130 -6.98 130 -8 130 C-7.34446354 124.5266655 -6.19195925 119.22474494 -4.98120117 113.84912109 C-1.49889316 98.33244502 1.07048322 82.78279315 3 67 C3.15795044 65.74207642 3.15795044 65.74207642 3.3190918 64.45874023 C4.1224213 57.41586126 4.19228665 50.39577867 4.1875 43.3125 C4.18669434 42.07387207 4.18588867 40.83524414 4.18505859 39.55908203 C4.10832613 28.09886289 2.88006372 17.24274533 0.3671875 6.05078125 C0 4 0 4 0 0 Z " fill="#E8CA92" transform="translate(459,201)"/>
<path d="M0 0 C1.125 3.75 1.125 3.75 0 6 C1.65 5.67 3.3 5.34 5 5 C4.72285156 5.86882812 4.44570313 6.73765625 4.16015625 7.6328125 C3.79792969 8.78523437 3.43570312 9.93765625 3.0625 11.125 C2.70285156 12.26195312 2.34320313 13.39890625 1.97265625 14.5703125 C-0.24741257 22.39850697 -0.28285639 30.10621372 -0.3125 38.1875 C-0.31511841 38.86995789 -0.31773682 39.55241577 -0.32043457 40.2555542 C-0.32621009 54.43239699 1.46361692 68.0555095 4 82 C4.305151 83.81090129 4.60862782 85.62208576 4.91015625 87.43359375 C6.84765101 98.66091055 9.6366018 109.59351029 12.71411133 120.56079102 C13.00954834 121.61580811 13.30498535 122.6708252 13.609375 123.7578125 C13.87717773 124.6977002 14.14498047 125.63758789 14.42089844 126.60595703 C15 129 15 129 15 132 C13.35 132 11.7 132 10 132 C10 133.32 10 134.64 10 136 C15.94 135.67 21.88 135.34 28 135 C30.64810405 141.17890945 31.36790778 143.24701931 31.2487793 149.49584961 C31.23946381 150.20888245 31.23014832 150.92191528 31.22055054 151.65655518 C31.18646034 153.98899335 31.13052308 156.32034532 31.07421875 158.65234375 C31.04615544 160.27899431 31.01946828 161.90566915 30.99409485 163.53236389 C30.92392531 167.79547709 30.83516364 172.05800458 30.74243164 176.32067871 C30.65096853 180.67777813 30.57722244 185.0351742 30.50195312 189.39257812 C30.35190388 197.92877319 30.18219783 206.46443087 30 215 C29.67 215 29.34 215 29 215 C28.98969254 214.05008682 28.97938507 213.10017365 28.96876526 212.12147522 C28.87119905 203.18902136 28.76848134 194.25663978 28.66066074 185.32430363 C28.60539035 180.73160822 28.55196391 176.1389065 28.50268555 171.54614258 C28.45510253 167.11760669 28.40276219 162.68915071 28.34705925 158.26070976 C28.32660813 156.56736669 28.3078997 154.87400169 28.29092598 153.18062019 C28.26694272 150.81702837 28.23688034 148.45358896 28.20532227 146.09008789 C28.19668907 145.02949661 28.19668907 145.02949661 28.18788147 143.94747925 C28.41161556 140.69225706 28.41161556 140.69225706 27 138 C25.43827255 137.91314397 23.87270656 137.89297781 22.30859375 137.90234375 C21.36435547 137.90556641 20.42011719 137.90878906 19.44726562 137.91210938 C18.45404297 137.92048828 17.46082031 137.92886719 16.4375 137.9375 C15.44041016 137.94201172 14.44332031 137.94652344 13.41601562 137.95117188 C10.94395151 137.96299993 8.47200482 137.97948151 6 138 C3.953125 134.28125 3.953125 134.28125 4.375 131.75 C4.58125 131.1725 4.7875 130.595 5 130 C5 130.66 5 131.32 5 132 C5.99 132 6.98 132 8 132 C7.62246582 130.41022339 7.62246582 130.41022339 7.23730469 128.78833008 C-13.57313579 40.71940737 -13.57313579 40.71940737 0 0 Z " fill="#475A44" transform="translate(423,201)"/>
<path d="M0 0 C0.99 0 1.98 0 3 0 C3 0.66 3 1.32 3 2 C3.66 2 4.32 2 5 2 C5.66 4.64 6.32 7.28 7 10 C7 9.01 7 8.02 7 7 C7.33 6.01 7.66 5.02 8 4 C8.33 4.33 8.66 4.66 9 5 C9.33 3.68 9.66 2.36 10 1 C21.12629777 22.30117815 25.72122479 42.2407178 18.39941406 65.94433594 C14.98288574 76.01711426 14.98288574 76.01711426 12 79 C10.515 78.505 10.515 78.505 9 78 C9 77.34 9 76.68 9 76 C10.485 75.505 10.485 75.505 12 75 C13.42292198 71.64484416 13.42292198 71.64484416 14 68 C13.34 67.01 12.68 66.02 12 65 C12.7425 64.13375 12.7425 64.13375 13.5 63.25 C15.36980013 60.89599371 15.36980013 60.89599371 15 57 C15.99 57 16.98 57 18 57 C18.63661781 49.64479068 19.12515181 42.38395674 19 35 C18.34 34.67 17.68 34.34 17 34 C17.33 32.35 17.66 30.7 18 29 C17.34 29 16.68 29 16 29 C15.773125 29.804375 15.54625 30.60875 15.3125 31.4375 C14.6628125 32.7059375 14.6628125 32.7059375 14 34 C11.375 34.8125 11.375 34.8125 9 35 C9.020625 36.258125 9.04125 37.51625 9.0625 38.8125 C9.10886083 41.64051087 8.91692961 43.24921116 8 46 C8.33 46.99 8.66 47.98 9 49 C8.4765625 51.15625 8.4765625 51.15625 7.625 53.5 C7.34914063 54.2734375 7.07328125 55.046875 6.7890625 55.84375 C6.52867187 56.5553125 6.26828125 57.266875 6 58 C5.67 58.99 5.34 59.98 5 61 C4.01 61 3.02 61 2 61 C2.2165625 60.12859375 2.433125 59.2571875 2.65625 58.359375 C7.14852517 39.14242012 4.5643481 24.80709664 -5.6328125 8.1640625 C-6.73037905 6.42677144 -7.86011707 4.7098244 -9 3 C-7.88625 3.061875 -6.7725 3.12375 -5.625 3.1875 C-4.42875 3.125625 -3.2325 3.06375 -2 3 C-1.34 2.01 -0.68 1.02 0 0 Z " fill="#F1D39F" transform="translate(579,349)"/>
<path d="M0 0 C3.29159316 -0.05790353 6.58305603 -0.09356261 9.875 -0.125 C10.81214844 -0.14175781 11.74929688 -0.15851563 12.71484375 -0.17578125 C13.61074219 -0.18222656 14.50664062 -0.18867188 15.4296875 -0.1953125 C16.25710449 -0.20578613 17.08452148 -0.21625977 17.93701172 -0.22705078 C20 0 20 0 22 2 C22.24609566 4.02647591 22.24609566 4.02647591 22.24050903 6.56838989 C22.24325836 7.53035278 22.24600769 8.49231567 22.24884033 9.48342896 C22.24164978 10.5422226 22.23445923 11.60101624 22.22705078 12.69189453 C22.22734283 13.80409363 22.22763489 14.91629272 22.22793579 16.06219482 C22.22653818 19.75247904 22.21095662 23.44256339 22.1953125 27.1328125 C22.1915839 29.6858611 22.18873621 32.23891113 22.18673706 34.79196167 C22.17987103 40.83389939 22.16409495 46.87575082 22.14403808 52.91765392 C22.12170092 59.7954311 22.11069116 66.67321168 22.10064721 73.55101609 C22.07972928 87.7007174 22.04453969 101.85035475 22 116 C21.67 116 21.34 116 21 116 C20.98969254 115.07832535 20.97938507 114.1566507 20.96876526 113.20704651 C20.86962813 104.39981782 20.76698006 95.59263791 20.66066074 86.7854929 C20.60615474 82.26074138 20.55287471 77.73598326 20.50268555 73.21118164 C20.44441199 67.9753737 20.38209981 62.73962627 20.31640625 57.50390625 C20.30585835 56.65151997 20.29531044 55.79913368 20.2844429 54.92091751 C20.13702192 43.41538237 19.87199326 31.93020395 19.239151 20.43910217 C18.98548622 15.44654226 19.09306589 10.92173028 20 6 C19.34 5.67 18.68 5.34 18 5 C18.33 4.34 18.66 3.68 19 3 C18.01 3.495 18.01 3.495 17 4 C14.45384991 4.23172827 11.92603775 4.41894529 9.375 4.5625 C8.66859375 4.60568359 7.9621875 4.64886719 7.234375 4.69335938 C5.48981463 4.79944751 3.74493303 4.90022889 2 5 C2.020625 6.11375 2.04125 7.2275 2.0625 8.375 C2 12 2 12 1 14 C0.89661457 15.40609612 0.85355834 16.81687249 0.84178162 18.22671509 C0.8319928 19.11295059 0.82220398 19.9991861 0.81211853 20.91227722 C0.80636307 21.88691422 0.8006076 22.86155121 0.79467773 23.86572266 C0.78477814 24.89013962 0.77487854 25.91455658 0.76467896 26.97001648 C0.73300245 30.36800803 0.70828222 33.76601357 0.68359375 37.1640625 C0.66302953 39.51533377 0.64203321 41.86660129 0.62062073 44.21786499 C0.56534507 50.41565934 0.51596004 56.61348735 0.46777344 62.81134033 C0.41759848 69.13206998 0.36189154 75.45275055 0.30664062 81.7734375 C0.19899187 94.18224978 0.09756185 106.59110461 0 119 C-0.33 119 -0.66 119 -1 119 C-1.0233389 103.77964009 -1.04098406 88.55928101 -1.05181217 73.33890724 C-1.05697302 66.27215604 -1.0640117 59.20541595 -1.07543945 52.13867188 C-1.08645413 45.32412994 -1.09227766 38.50959956 -1.09487724 31.69504929 C-1.09673079 29.08982537 -1.10035007 26.48460211 -1.10573006 23.87938309 C-1.11294557 20.24200299 -1.11399072 16.60467121 -1.11352539 12.96728516 C-1.11712067 11.8804393 -1.12071594 10.79359344 -1.12442017 9.67381287 C-1.1230455 8.68660751 -1.12167084 7.69940216 -1.12025452 6.68228149 C-1.12117631 5.82132685 -1.1220981 4.9603722 -1.12304783 4.07332802 C-1 2 -1 2 0 0 Z " fill="#A2A387" transform="translate(430,338)"/>
<path d="M0 0 C0.33 0 0.66 0 1 0 C1.83499992 27.13107416 -0.87670694 53.53276698 -7 80 C-7.21865723 80.94633301 -7.43731445 81.89266602 -7.66259766 82.86767578 C-9.07113734 88.92096095 -10.51763259 94.96438555 -12 101 C-12.33 100.01 -12.66 99.02 -13 98 C-13.99 98 -14.98 98 -16 98 C-15.76925781 96.88109375 -15.53851563 95.7621875 -15.30078125 94.609375 C-9.53392549 66.37518526 -4.99785719 38.80805595 -4 10 C-3.67 10 -3.34 10 -3 10 C-2.27473468 17.84402334 -1.78925926 25.19744856 -3 33 C-2.34 33 -1.68 33 -1 33 C-0.67 22.11 -0.34 11.22 0 0 Z " fill="#4B5C45" transform="translate(463,230)"/>
<path d="M0 0 C0.99 0.66 1.98 1.32 3 2 C3.99 1.67 4.98 1.34 6 1 C7.28710927 6.76460642 8.5687062 12.53040018 9.84521484 18.29736328 C10.28022471 20.25896257 10.71673784 22.22022912 11.15478516 24.18115234 C11.78423432 27.00011402 12.40826412 29.82022887 13.03125 32.640625 C13.22811401 33.51680481 13.42497803 34.39298462 13.62780762 35.29571533 C13.89808777 36.52653839 13.89808777 36.52653839 14.17382812 37.78222656 C14.33371216 38.50170471 14.49359619 39.22118286 14.6583252 39.96246338 C15 42 15 42 15 46 C14.01 46 13.02 46 12 46 C7.31139324 35.93926476 2.78495865 25.85393893 -1.0625 15.4375 C-1.36099854 14.63530029 -1.65949707 13.83310059 -1.96704102 13.0065918 C-3.09541889 9.88882076 -4 7.34167494 -4 4 C-3.34 4 -2.68 4 -2 4 C-1.67 3.01 -1.34 2.02 -1 1 C-0.67 0.67 -0.34 0.34 0 0 Z " fill="#E9CE96" transform="translate(416,287)"/>
<path d="M0 0 C0.33 0 0.66 0 1 0 C0.42767894 7.47116586 -0.8136432 14.67649312 -2.375 22 C-2.68824219 23.52367187 -2.68824219 23.52367187 -3.0078125 25.078125 C-6.25062223 40.50124447 -6.25062223 40.50124447 -9 46 C-10.98 46 -12.96 46 -15 46 C-17.30553879 40.13811692 -19.11235724 34.28344526 -20.6875 28.1875 C-20.91244141 27.34251953 -21.13738281 26.49753906 -21.36914062 25.62695312 C-23 19.38606573 -23 19.38606573 -23 16 C-22.34 16 -21.68 16 -21 16 C-20.566875 17.3303125 -20.566875 17.3303125 -20.125 18.6875 C-19.75375 19.780625 -19.3825 20.87375 -19 22 C-18.731875 22.845625 -18.46375 23.69125 -18.1875 24.5625 C-17.06213724 27.22082761 -17.06213724 27.22082761 -14.4375 29.5 C-11.86181967 32.14172341 -11.30860041 33.3996619 -11 37 C-10.34 35.35 -9.68 33.7 -9 32 C-8.34 32.33 -7.68 32.66 -7 33 C-6.82984375 31.79085938 -6.6596875 30.58171875 -6.484375 29.3359375 C-5.01311588 19.27013314 -3.11900676 9.70533576 0 0 Z " fill="#E6D09F" transform="translate(454,288)"/>
<path d="M0 0 C1.2684375 0.12375 1.2684375 0.12375 2.5625 0.25 C3.2225 1.24 3.8825 2.23 4.5625 3.25 C1.5625 3.25 1.5625 3.25 -1.4375 2.25 C-1.004375 3.68085938 -1.004375 3.68085938 -0.5625 5.140625 C2.56134189 16.75658586 2.93364712 28.05214603 2.875 40 C2.87218018 40.79748657 2.86936035 41.59497314 2.86645508 42.41662598 C2.85385776 44.73108529 2.83060744 47.04507748 2.80078125 49.359375 C2.79323318 50.05051392 2.78568512 50.74165283 2.77790833 51.45373535 C2.69420815 55.80893799 2.25458184 59.96027682 1.5625 64.25 C0.9025 64.25 0.2425 64.25 -0.4375 64.25 C-0.42734863 63.59008057 -0.41719727 62.93016113 -0.40673828 62.25024414 C-0.34727631 55.34719512 -0.69395678 48.56071532 -1.3125 41.6875 C-1.39113281 40.72392578 -1.46976562 39.76035156 -1.55078125 38.76757812 C-2.03720162 33.21864421 -2.81442678 27.86145844 -4.03955078 22.42602539 C-4.4375 20.25 -4.4375 20.25 -4.4375 16.25 C-3.7775 15.59 -3.1175 14.93 -2.4375 14.25 C-2.45470786 11.14768731 -2.45470786 11.14768731 -2.875 7.6875 C-3.09792668 5.54505732 -3.29421742 3.39923871 -3.4375 1.25 C-2.4375 0.25 -2.4375 0.25 0 0 Z " fill="#35513F" transform="translate(460.4375,198.75)"/>
<path d="M0 0 C0.33 0 0.66 0 1 0 C2.24327778 5.84340558 1.57300962 10.26696495 0 16 C-0.66 16 -1.32 16 -2 16 C-1.67 18.97 -1.34 21.94 -1 25 C-0.67 25 -0.34 25 0 25 C0.66 21.04 1.32 17.08 2 13 C2.33 13.99 2.66 14.98 3 16 C3.66 16 4.32 16 5 16 C4.9175 14.80375 4.835 13.6075 4.75 12.375 C4.7170865 7.75065363 6.15386254 5.55767182 9 2 C10.44580991 5.81833309 9.5108722 8.16491944 8.12109375 11.91015625 C7.69376953 13.06580078 7.26644531 14.22144531 6.82617188 15.41210938 C6.36791016 16.61673828 5.90964844 17.82136719 5.4375 19.0625 C5.00630859 20.24005859 4.57511719 21.41761719 4.13085938 22.63085938 C1.32328198 30.12464425 -1.95842707 37.0933364 -6 44 C-6.99 44 -7.98 44 -9 44 C-8.38846549 39.45420039 -7.62971599 34.99047841 -6.66015625 30.5078125 C-6.40169922 29.30769531 -6.14324219 28.10757812 -5.87695312 26.87109375 C-5.60818359 25.63488281 -5.33941406 24.39867187 -5.0625 23.125 C-4.79759766 21.89652344 -4.53269531 20.66804688 -4.25976562 19.40234375 C-2.86191395 12.92990897 -1.4445657 6.46216346 0 0 Z " fill="#E3CFA4" transform="translate(460,287)"/>
<path d="M0 0 C0.9912085 0.06711182 1.98241699 0.13422363 3.00366211 0.20336914 C12.27398286 0.7928979 21.52829902 1.11183058 30.81640625 1.24609375 C31.93324799 1.26274078 33.05008972 1.27938782 34.20077515 1.29653931 C38.83146126 1.36298717 43.46214005 1.42524926 48.09301758 1.47680664 C51.5218162 1.51662925 54.9502899 1.56806395 58.37890625 1.62109375 C59.93068321 1.63371498 59.93068321 1.63371498 61.5138092 1.64659119 C67.62507436 1.75012735 73.07864359 2.46804009 79 4 C78.67 4.66 78.34 5.32 78 6 C77.37762451 5.83773926 76.75524902 5.67547852 76.11401367 5.50830078 C71.79144385 4.80272725 67.54844017 4.85744468 63.17578125 4.8671875 C61.76186348 4.86575241 61.76186348 4.86575241 60.31938171 4.86428833 C58.33328179 4.86360947 56.34717961 4.86544325 54.36108398 4.86962891 C51.31293808 4.87499923 48.26493832 4.86966479 45.21679688 4.86328125 C43.28645801 4.86394173 41.35611923 4.86522227 39.42578125 4.8671875 C38.51121658 4.86516327 37.59665192 4.86313904 36.65437317 4.86105347 C35.80977036 4.86420563 34.96516754 4.86735779 34.0949707 4.87060547 C33.35060257 4.87140106 32.60623444 4.87219666 31.83930969 4.87301636 C29.90304776 4.88824774 29.90304776 4.88824774 28 6 C28 5.01 28 4.02 28 3 C23.38 3 18.76 3 14 3 C14 3.66 14 4.32 14 5 C8.68456376 8.1409396 8.68456376 8.1409396 5.875 7.5625 C3.30892251 5.42410209 1.80868428 2.78807556 0 0 Z " fill="#D5C299" transform="translate(482,193)"/>
<path d="M0 0 C0.99 -0.33 1.98 -0.66 3 -1 C2.34 0.65 1.68 2.3 1 4 C1.66 4.33 2.32 4.66 3 5 C0.37886292 5 -1.50935112 4.68707555 -4 4 C-4.66 5.65 -5.32 7.3 -6 9 C2.33570302 10.10832252 10.66828288 10.32775703 19.0625 10.5625 C20.5149839 10.60578755 21.96745801 10.64940474 23.41992188 10.69335938 C26.94650991 10.79937254 30.47320935 10.90092748 34 11 C34 11.33 34 11.66 34 12 C17.5 12 1 12 -16 12 C-11.44615385 4.03076923 -11.44615385 4.03076923 -8 1.5 C-7.01 0.74203125 -7.01 0.74203125 -6 -0.03125 C-3.50216669 -1.24113801 -2.58563637 -0.79237243 0 0 Z " fill="#EDEAD6" transform="translate(493,442)"/>
<path d="M0 0 C1.84719949 3.29408943 2.69096433 6.47797448 3.5078125 10.15625 C3.77207031 11.34347656 4.03632813 12.53070313 4.30859375 13.75390625 C4.57800781 14.99011719 4.84742188 16.22632813 5.125 17.5 C5.40214844 18.73621094 5.67929687 19.97242188 5.96484375 21.24609375 C8 30.47948738 8 30.47948738 8 35 C7.01 35 6.02 35 5 35 C3.5399348 31.77161367 2.08225617 28.54215515 0.625 25.3125 C0.2125 24.40048828 -0.2 23.48847656 -0.625 22.54882812 C-1.22441406 21.21948242 -1.22441406 21.21948242 -1.8359375 19.86328125 C-2.20251465 19.05157471 -2.5690918 18.23986816 -2.94677734 17.40356445 C-3.46812256 16.21380005 -3.46812256 16.21380005 -4 15 C-4.39525879 14.13656982 -4.79051758 13.27313965 -5.19775391 12.38354492 C-6 10 -6 10 -5 7 C-3.5393715 9.64738916 -3 10.89448334 -3 14 C-1.68 14.66 -0.36 15.32 1 16 C0.855625 15.278125 0.71125 14.55625 0.5625 13.8125 C0.04166667 11.20833333 -0.47916667 8.60416667 -1 6 C-1.66 6 -2.32 6 -3 6 C-2.67 4.68 -2.34 3.36 -2 2 C-1.34 2 -0.68 2 0 2 C0 1.34 0 0.68 0 0 Z " fill="#DED0A6" transform="translate(423,298)"/>
<path d="M0 0 C0.66 0 1.32 0 2 0 C0.42107989 3.33065735 -1.48528781 6.3764605 -3.4375 9.5 C-6.96159472 15.49315901 -8.76080285 21.19394797 -10 28 C-10.18304688 28.9178125 -10.36609375 29.835625 -10.5546875 30.78125 C-12.55551389 45.24336354 -10.54679286 59.75008759 -8 74 C-8.66 73.67 -9.32 73.34 -10 73 C-10 72.01 -10 71.02 -10 70 C-10.66 70 -11.32 70 -12 70 C-14.57914338 52.23755165 -16.08261985 33.11620935 -10 16 C-9.82082031 15.23558594 -9.64164062 14.47117188 -9.45703125 13.68359375 C-9 12 -9 12 -7.5625 10.6875 C-5.22161761 8.15934702 -4.80670456 5.28887243 -4 2 C-2.68 2 -1.36 2 0 2 C0 1.34 0 0.68 0 0 Z " fill="#465439" transform="translate(415,202)"/>
<path d="M0 0 C0.33 0.66 0.66 1.32 1 2 C1.66 2.33 2.32 2.66 3 3 C2.34 3 1.68 3 1 3 C1.15935676 5.43675857 1.15935676 5.43675857 2 8 C11.24002222 14.46421307 24.32726304 13.10942031 35.0078125 12.9375 C38 13 38 13 39 14 C41.34723966 14.397493 43.70328548 14.74368723 46.0625 15.0625 C47.35285156 15.23910156 48.64320313 15.41570312 49.97265625 15.59765625 C50.97167969 15.73042969 51.97070312 15.86320312 53 16 C53 16.99 53 17.98 53 19 C47.83653825 18.56590366 42.77719203 17.98132192 37.6875 17 C30.98321251 15.80405288 24.26948946 15.63006194 17.47338867 15.51757812 C10.80274573 15.32348686 6.02787035 14.25149333 0.5625 10.1875 C-1.49840443 7.3022338 -1.3773451 5.47157496 -1 2 C-0.67 1.34 -0.34 0.68 0 0 Z " fill="#E3D2AA" transform="translate(491,316)"/>
<path d="M0 0 C3.62613199 0.56959153 5.25517741 1.92374534 7.75 4.5625 C8.36359375 5.20316406 8.9771875 5.84382812 9.609375 6.50390625 C10.06828125 6.99761719 10.5271875 7.49132812 11 8 C10 10 10 10 8 11 C7.67 9.68 7.34 8.36 7 7 C6.34 7 5.68 7 5 7 C5.0721875 7.78375 5.144375 8.5675 5.21875 9.375 C6.39649044 24.55476568 6.08996724 39.78584754 6 55 C5.67 55 5.34 55 5 55 C4.98018066 54.29093506 4.96036133 53.58187012 4.93994141 52.85131836 C4.47509614 37.01190864 3.85057265 21.56524279 0.3671875 6.05078125 C0 4 0 4 0 0 Z " fill="#D9C699" transform="translate(459,201)"/>
<path d="M0 0 C6.93 0 13.86 0 21 0 C23.64810405 6.17890945 24.36790778 8.24701931 24.2487793 14.49584961 C24.23946381 15.20888245 24.23014832 15.92191528 24.22055054 16.65655518 C24.18646034 18.98899335 24.13052308 21.32034532 24.07421875 23.65234375 C24.04615544 25.27899431 24.01946828 26.90566915 23.99409485 28.53236389 C23.92392531 32.79547709 23.83516364 37.05800458 23.74243164 41.32067871 C23.65096853 45.67777813 23.57722244 50.0351742 23.50195312 54.39257812 C23.35190388 62.92877319 23.18219783 71.46443087 23 80 C22.67 80 22.34 80 22 80 C21.98969254 79.05008682 21.97938507 78.10017365 21.96876526 77.12147522 C21.87119905 68.18902136 21.76848134 59.25663978 21.66066074 50.32430363 C21.60539035 45.73160822 21.55196391 41.1389065 21.50268555 36.54614258 C21.45510253 32.11760669 21.40276219 27.68915071 21.34705925 23.26070976 C21.32660813 21.56736669 21.3078997 19.87400169 21.29092598 18.18062019 C21.26694272 15.81702837 21.23688034 13.45358896 21.20532227 11.09008789 C21.19668907 10.02949661 21.19668907 10.02949661 21.18788147 8.94747925 C21.41161556 5.69225706 21.41161556 5.69225706 20 3 C18.43827255 2.91314397 16.87270656 2.89297781 15.30859375 2.90234375 C14.36435547 2.90556641 13.42011719 2.90878906 12.44726562 2.91210938 C10.95743164 2.92467773 10.95743164 2.92467773 9.4375 2.9375 C8.44041016 2.94201172 7.44332031 2.94652344 6.41601562 2.95117188 C3.94395151 2.96299993 1.47200482 2.97948151 -1 3 C-0.67 2.01 -0.34 1.02 0 0 Z " fill="#3B4D3A" transform="translate(430,336)"/>
<path d="M0 0 C0.66 0 1.32 0 2 0 C2.66 0.99 3.32 1.98 4 3 C4.66 2.01 5.32 1.02 6 0 C7.99616554 1.99616554 7.40983427 5.81701963 7.5625 8.5625 C7.60568359 9.27341797 7.64886719 9.98433594 7.69335938 10.71679688 C7.79971777 12.47761912 7.90038846 14.2387832 8 16 C8.66 16 9.32 16 10 16 C12.9880365 26.86720417 14.05836646 36.86158147 12 48 C11.67 48 11.34 48 11 48 C10.96036133 47.33581055 10.92072266 46.67162109 10.87988281 45.98730469 C9.96323721 28.57587681 9.96323721 28.57587681 5 12 C4.32130859 10.329375 4.32130859 10.329375 3.62890625 8.625 C2.44865184 5.73621868 1.23901277 2.86394756 0 0 Z " fill="#41523A" transform="translate(590,352)"/>
<path d="M0 0 C3.23206909 1.34404552 4.70023689 2.45462215 6.22265625 5.6171875 C8.76633691 11.85612203 8.56298055 18.32524978 8.46655273 24.95410156 C8.43782903 27.10041363 8.4459265 29.24420636 8.45898438 31.390625 C8.44169121 41.86487211 7.33217715 52.00346854 4 62 C3.34 62 2.68 62 2 62 C1.67 63.32 1.34 64.64 1 66 C0.34 65.67 -0.32 65.34 -1 65 C-0.66226563 64.17757812 -0.32453125 63.35515625 0.0234375 62.5078125 C0.46945312 61.39148438 0.91546875 60.27515625 1.375 59.125 C1.81585937 58.03445313 2.25671875 56.94390625 2.7109375 55.8203125 C5.75449473 47.36875363 6.34092892 38.98349632 6.3125 30.0625 C6.32861328 29.05509766 6.34472656 28.04769531 6.36132812 27.00976562 C6.36757324 17.29861721 4.08997178 8.76422525 0 0 Z " fill="#4D593E" transform="translate(593,222)"/>
<path d="M0 0 C2.0625 0.4375 2.0625 0.4375 4 1 C4.04254356 2.99954746 4.04080783 5.00041636 4 7 C3.67 7.33 3.34 7.66 3 8 C2.76924918 9.34747084 2.58846937 10.70377565 2.4375 12.0625 C2.293125 13.361875 2.14875 14.66125 2 16 C1.34 16 0.68 16 0 16 C-0.33 15.34 -0.66 14.68 -1 14 C-1.6496875 14.99 -1.6496875 14.99 -2.3125 16 C-2.869375 16.66 -3.42625 17.32 -4 18 C-4.99 18 -5.98 18 -7 18 C-7.38820805 14.60317957 -7.28677991 13.36325456 -5.125 10.625 C-4.42375 9.75875 -3.7225 8.8925 -3 8 C-2.26739841 5.68652128 -1.588562 3.354248 -1 1 C-0.67 0.67 -0.34 0.34 0 0 Z " fill="#ECCB8B" transform="translate(416,206)"/>
<path d="M0 0 C1.2684375 0.12375 1.2684375 0.12375 2.5625 0.25 C3.2225 1.24 3.8825 2.23 4.5625 3.25 C1.5625 3.25 1.5625 3.25 -1.4375 2.25 C-1.14875 3.50554687 -0.86 4.76109375 -0.5625 6.0546875 C3.13277365 22.55332685 3.13277365 22.55332685 2.5625 31.25 C2.2325 31.25 1.9025 31.25 1.5625 31.25 C0.9025 26.63 0.2425 22.01 -0.4375 17.25 C-1.0975 17.25 -1.7575 17.25 -2.4375 17.25 C-2.1075 17.91 -1.7775 18.57 -1.4375 19.25 C-1.36716231 21.12379605 -1.3531978 23.00001102 -1.375 24.875 C-1.38402344 25.87789062 -1.39304687 26.88078125 -1.40234375 27.9140625 C-1.41394531 28.68492187 -1.42554688 29.45578125 -1.4375 30.25 C-1.7675 30.25 -2.0975 30.25 -2.4375 30.25 C-2.77570166 28.6676994 -3.10785939 27.08410625 -3.4375 25.5 C-3.623125 24.61828125 -3.80875 23.7365625 -4 22.828125 C-4.4375 20.25 -4.4375 20.25 -4.4375 16.25 C-3.7775 15.59 -3.1175 14.93 -2.4375 14.25 C-2.45470786 11.14768731 -2.45470786 11.14768731 -2.875 7.6875 C-3.09792668 5.54505732 -3.29421742 3.39923871 -3.4375 1.25 C-2.4375 0.25 -2.4375 0.25 0 0 Z " fill="#46553B" transform="translate(460.4375,198.75)"/>
<path d="M0 0 C0.33 0 0.66 0 1 0 C1.6785071 12.40160191 -0.16302735 22.89469961 -6 34 C-7.32 33.67 -8.64 33.34 -10 33 C-10 32.34 -10 31.68 -10 31 C-9.01 30.67 -8.02 30.34 -7 30 C-5.57707802 26.64484416 -5.57707802 26.64484416 -5 23 C-5.66 22.01 -6.32 21.02 -7 20 C-6.505 19.4225 -6.01 18.845 -5.5 18.25 C-3.63019987 15.89599371 -3.63019987 15.89599371 -4 12 C-3.01 12 -2.02 12 -1 12 C-0.67 8.04 -0.34 4.08 0 0 Z " fill="#F0DEB4" transform="translate(598,394)"/>
<path d="M0 0 C0.66 0 1.32 0 2 0 C1.52088218 10.39685673 -0.39232536 21.69320902 -7 30 C-7.99 30 -8.98 30 -10 30 C-8.94520643 27.36058568 -7.88725847 24.72279723 -6.81640625 22.08984375 C-3.92693282 14.82565353 -1.69139259 7.6318934 0 0 Z " fill="#D6C291" transform="translate(584,258)"/>
<path d="M0 0 C0.66 0 1.32 0 2 0 C1.85990213 4.0002222 1.71188256 8.00011461 1.5625 12 C1.50352539 13.68802734 1.50352539 13.68802734 1.44335938 15.41015625 C1.21827453 21.33161908 0.85527916 27.13522862 0 33 C-1.68131083 30.05603643 -2.25558435 27.93197179 -2.265625 24.55078125 C-2.26820313 23.70193359 -2.27078125 22.85308594 -2.2734375 21.97851562 C-2.26570313 21.09873047 -2.25796875 20.21894531 -2.25 19.3125 C-2.25773437 18.45205078 -2.26546875 17.59160156 -2.2734375 16.70507812 C-2.25580412 10.85520303 -1.44718848 5.66815488 0 0 Z " fill="#D7C897" transform="translate(405,227)"/>
<path d="M0 0 C0.99 0.33 1.98 0.66 3 1 C3.8441938 4.97977076 4.44687265 8.97007218 5 13 C5.66 10.03 6.32 7.06 7 4 C8.95216435 7.90432869 9.50639991 10.72213252 10 15 C8.35 15 6.7 15 5 15 C5 16.32 5 17.64 5 19 C3.68 19 2.36 19 1 19 C0.34 18.34 -0.32 17.68 -1 17 C-0.625 14.875 -0.625 14.875 0 13 C0 13.66 0 14.32 0 15 C0.99 15 1.98 15 3 15 C2.7834375 14.16855469 2.566875 13.33710938 2.34375 12.48046875 C2.0653125 11.39378906 1.786875 10.30710937 1.5 9.1875 C1.2215625 8.10855469 0.943125 7.02960938 0.65625 5.91796875 C0 3 0 3 0 0 Z " fill="#435842" transform="translate(428,318)"/>
<path d="M0 0 C0.66 0 1.32 0 2 0 C2 0.99 2 1.98 2 3 C22.295 3.495 22.295 3.495 43 4 C43 4.33 43 4.66 43 5 C26.5 5 10 5 -7 5 C-6.67 4.34 -6.34 3.68 -6 3 C-2.9375 2.375 -2.9375 2.375 0 2 C0 1.34 0 0.68 0 0 Z " fill="#F4F2E2" transform="translate(484,449)"/>
<path d="M0 0 C0.99 0.33 1.98 0.66 3 1 C4.80645161 21.58064516 4.80645161 21.58064516 3 27 C2.34 27 1.68 27 1 27 C0.957279 25.33388095 0.95936168 23.66617115 1 22 C1.33 21.67 1.66 21.34 2 21 C1.34 20.34 0.68 19.68 0 19 C-0.22705078 17.02880859 -0.22705078 17.02880859 -0.1953125 14.6484375 C-0.18886719 13.79765625 -0.18242187 12.946875 -0.17578125 12.0703125 C-0.15902344 11.18085938 -0.14226562 10.29140625 -0.125 9.375 C-0.11597656 8.4778125 -0.10695313 7.580625 -0.09765625 6.65625 C-0.0740497 4.43723414 -0.0411231 2.21874923 0 0 Z " fill="#345140" transform="translate(418,234)"/>
<path d="M0 0 C1.85255625 2.77883437 2.64686353 4.72060841 3.5625 7.875 C3.93568359 9.13957031 3.93568359 9.13957031 4.31640625 10.4296875 C5.80554466 16.02884792 6.15342739 21.10423942 6.125 26.875 C6.12886719 27.65230469 6.13273437 28.42960937 6.13671875 29.23046875 C6.12883117 33.92358006 5.77762682 38.37126895 5 43 C4.67 43 4.34 43 4 43 C3.97494385 42.26475098 3.9498877 41.52950195 3.92407227 40.77197266 C3.8068955 37.38952308 3.68472877 34.00727064 3.5625 30.625 C3.52318359 29.46871094 3.48386719 28.31242187 3.44335938 27.12109375 C3.19577173 20.37909185 2.78053875 13.70209838 2 7 C1.34 7 0.68 7 0 7 C0 4.69 0 2.38 0 0 Z " fill="#B9B18C" transform="translate(473,217)"/>
<path d="M0 0 C4.17400743 6.26101114 4.21314127 13.27716637 3.97265625 20.6171875 C3.88045416 23.15023104 3.88045416 23.15023104 5 26 C4.4765625 28.15625 4.4765625 28.15625 3.625 30.5 C3.34914063 31.2734375 3.07328125 32.046875 2.7890625 32.84375 C2.52867187 33.5553125 2.26828125 34.266875 2 35 C1.67 35.99 1.34 36.98 1 38 C0.01 38 -0.98 38 -2 38 C-1.7834375 37.12859375 -1.566875 36.2571875 -1.34375 35.359375 C1.29440243 24.07394515 1.82115649 14.41822473 -0.66015625 3.08203125 C-0.77230469 2.39496094 -0.88445313 1.70789063 -1 1 C-0.67 0.67 -0.34 0.34 0 0 Z " fill="#E0D4AF" transform="translate(583,372)"/>
<path d="M0 0 C1.32 0 2.64 0 4 0 C4.99989549 6.59390542 5.00925164 11.61767125 3 18 C2.67 18 2.34 18 2 18 C1.67 16.35 1.34 14.7 1 13 C0.01 12.67 -0.98 12.34 -2 12 C-1 3.42857143 -1 3.42857143 0 0 Z " fill="#EDC380" transform="translate(594,260)"/>
<path d="M0 0 C5.36385856 8.04578785 6.41178232 18.72702753 4.59423828 28.09033203 C3.5502361 32.77037719 2.31090921 37.38840868 1 42 C0.34 41.34 -0.32 40.68 -1 40 C-0.5390625 37.7421875 -0.5390625 37.7421875 0.375 34.875 C3.30801998 23.99401961 3.10361092 13.52665411 -1 3 C-0.67 2.01 -0.34 1.02 0 0 Z " fill="#545C40" transform="translate(580,232)"/>
<path d="M0 0 C1.125 3.75 1.125 3.75 0 6 C1.65 5.67 3.3 5.34 5 5 C3.35 10.61 1.7 16.22 0 22 C-0.99 21.34 -1.98 20.68 -3 20 C-3.77643186 13.01211329 -1.87586032 6.69950113 0 0 Z " fill="#3D5237" transform="translate(423,201)"/>
<path d="M0 0 C11.22 0 22.44 0 34 0 C34 0.33 34 0.66 34 1 C29.80902039 1.59871137 25.79808986 2.06127436 21.5625 2 C20.386875 2 19.21125 2 18 2 C17.67 2.33 17.34 2.66 17 3 C14.50941086 3.09997642 12.05272605 3.13879627 9.5625 3.125 C8.52125977 3.13080078 8.52125977 3.13080078 7.45898438 3.13671875 C2.25327988 3.12663994 2.25327988 3.12663994 0 2 C0 1.34 0 0.68 0 0 Z " fill="#EFEDD5" transform="translate(511,435)"/>
<path d="M0 0 C0 3 0 3 -1.875 5.4375 C-4.97854849 8.38987278 -8.62018677 9.66524482 -12.59765625 11.10546875 C-14.95995698 11.90197768 -14.95995698 11.90197768 -16.79296875 13.07421875 C-20.16717826 14.48959513 -23.64078516 14.47195909 -27.25 14.625 C-27.99507812 14.66367187 -28.74015625 14.70234375 -29.5078125 14.7421875 C-31.3381524 14.83605108 -33.16904143 14.91909718 -35 15 C-32.34865807 13.59133566 -29.86034895 12.59107129 -26.953125 11.8515625 C-25.8084375 11.54992187 -25.8084375 11.54992187 -24.640625 11.2421875 C-23.06341058 10.83499816 -21.48529666 10.43127515 -19.90625 10.03125 C-12.34650992 8.02715783 -5.93355389 5.19185966 0 0 Z " fill="#DBCB9E" transform="translate(567,297)"/>
<path d="M0 0 C0.66 0 1.32 0 2 0 C3.3169723 3.5746391 4.24400167 7.07693337 4.9375 10.8125 C5.74705568 15.09343042 6.93692109 19.09245452 8.4140625 23.1875 C9 25 9 25 9 27 C10.65 27.33 12.3 27.66 14 28 C14 28.66 14 29.32 14 30 C12.02 30 10.04 30 8 30 C5.69446121 24.13811692 3.88764276 18.28344526 2.3125 12.1875 C1.97508789 10.9200293 1.97508789 10.9200293 1.63085938 9.62695312 C0 3.38606573 0 3.38606573 0 0 Z " fill="#DAD2AB" transform="translate(431,304)"/>
<path d="M0 0 C0.33 0 0.66 0 1 0 C2.79362465 8.74392018 3.23737365 17.08530089 3 26 C2.34 26 1.68 26 1 26 C0.67 27.32 0.34 28.64 0 30 C-1.32288065 25.20455766 -0.86704941 20.70519054 -0.5 15.8125 C0.22755868 10.25351984 0.22755868 10.25351984 -1 5 C-0.72057545 3.32345271 -0.39171753 1.65391846 0 0 Z " fill="#EEC88B" transform="translate(474,230)"/>
<path d="M0 0 C0.33 0 0.66 0 1 0 C2.24327778 5.84340558 1.57300962 10.26696495 0 16 C-0.66 16 -1.32 16 -2 16 C-2 20.62 -2 25.24 -2 30 C-3.32 30 -4.64 30 -6 30 C-4 20 -2 10 0 0 Z " fill="#D6CAA0" transform="translate(460,287)"/>
<path d="M0 0 C0.33 0.99 0.66 1.98 1 3 C-0.41170909 4.29708314 -1.82958196 5.58745978 -3.25 6.875 C-4.03890625 7.59429687 -4.8278125 8.31359375 -5.640625 9.0546875 C-7.72026168 10.76935483 -9.54419267 11.92980873 -12 13 C-12 12.01 -12 11.02 -12 10 C-10.01924973 8.63823419 -8.01920337 7.30406884 -6 6 C-6 5.34 -6 4.68 -6 4 C-6.66 4.66 -7.32 5.32 -8 6 C-8.33 5.01 -8.66 4.02 -9 3 C-6.38997624 -0.48003168 -4.1689578 -0.27793052 0 0 Z " fill="#F2DFC0" transform="translate(585,434)"/>
<path d="M0 0 C6.6 0 13.2 0 20 0 C18 2 18 2 14.5234375 2.1953125 C13.14049032 2.18201493 11.75761346 2.15816232 10.375 2.125 C9.66859375 2.11597656 8.9621875 2.10695313 8.234375 2.09765625 C6.48943902 2.07407603 4.74467705 2.03820461 3 2 C2.84660156 3.09441406 2.69320313 4.18882812 2.53515625 5.31640625 C2.11022457 8.24130097 1.6129269 11.11048748 1 14 C0.67 14 0.34 14 0 14 C0 9.38 0 4.76 0 0 Z " fill="#D7C6A4" transform="translate(430,338)"/>
<path d="M0 0 C1.11181641 0.00322266 2.22363281 0.00644531 3.36914062 0.00976562 C4.51962891 0.01814453 5.67011719 0.02652344 6.85546875 0.03515625 C8.02529297 0.03966797 9.19511719 0.04417969 10.40039062 0.04882812 C13.28130233 0.06058695 16.16210919 0.07702199 19.04296875 0.09765625 C19.04296875 0.42765625 19.04296875 0.75765625 19.04296875 1.09765625 C18.04499268 1.11953003 18.04499268 1.11953003 17.02685547 1.1418457 C13.98999761 1.2166699 10.95419784 1.31321641 7.91796875 1.41015625 C6.34789062 1.44399414 6.34789062 1.44399414 4.74609375 1.47851562 C-3.05983711 1.69618075 -3.05983711 1.69618075 -9.95703125 5.09765625 C-11.29180124 7.30946404 -11.29180124 7.30946404 -11.83203125 9.78515625 C-12.05632812 10.59339844 -12.280625 11.40164063 -12.51171875 12.234375 C-12.73214844 13.15669922 -12.73214844 13.15669922 -12.95703125 14.09765625 C-13.28703125 14.09765625 -13.61703125 14.09765625 -13.95703125 14.09765625 C-13.8431325 12.30524962 -13.71555438 10.5137079 -13.58203125 8.72265625 C-13.51242187 7.72492188 -13.4428125 6.7271875 -13.37109375 5.69921875 C-12.95703125 3.09765625 -12.95703125 3.09765625 -10.95703125 1.09765625 C-7.28205613 0.08800393 -3.79641949 -0.01946882 0 0 Z " fill="#3E5139" transform="translate(501.95703125,310.90234375)"/>
<path d="M0 0 C6.30919121 6.59597263 5.25733841 17.11829162 5.125 25.5625 C5.11597656 26.66658203 5.10695313 27.77066406 5.09765625 28.90820312 C5.07430128 31.6057017 5.04155054 34.30273077 5 37 C4.67 37 4.34 37 4 37 C3.93941406 35.81921875 3.87882813 34.6384375 3.81640625 33.421875 C3.73197418 31.8645723 3.64732751 30.30728121 3.5625 28.75 C3.52318359 27.97269531 3.48386719 27.19539063 3.44335938 26.39453125 C3.40146484 25.64042969 3.35957031 24.88632813 3.31640625 24.109375 C3.27974854 23.41811523 3.24309082 22.72685547 3.20532227 22.01464844 C2.99276459 19.92900521 2.53323369 18.02501538 2 16 C1.16623434 10.68474389 0.57003146 5.34859306 0 0 Z " fill="#D8BC85" transform="translate(595,227)"/>
<path d="M0 0 C1.32 0 2.64 0 4 0 C3.69255859 0.83917969 3.69255859 0.83917969 3.37890625 1.6953125 C0.89731572 9.08071589 0.32406552 16.24477697 0 24 C-0.66 23.67 -1.32 23.34 -2 23 C-2.28078818 4.56157635 -2.28078818 4.56157635 0 0 Z " fill="#DCC794" transform="translate(579,304)"/>
<path d="M0 0 C1.4540625 0.0309375 1.4540625 0.0309375 2.9375 0.0625 C3.2675 0.7225 3.5975 1.3825 3.9375 2.0625 C-9.51124715 7.61830866 -9.51124715 7.61830866 -17.0625 8.0625 C-17.0625 7.4025 -17.0625 6.7425 -17.0625 6.0625 C-12.6075 5.5675 -12.6075 5.5675 -8.0625 5.0625 C-8.3925 3.7425 -8.7225 2.4225 -9.0625 1.0625 C-7.8559375 1.0934375 -7.8559375 1.0934375 -6.625 1.125 C-3.4084517 1.0465476 -3.39792468 0.0693454 0 0 Z " fill="#415340" transform="translate(561.0625,425.9375)"/>
<path d="M0 0 C3 2 3 2 3.6796875 3.734375 C4.76392457 11.40336892 4.19574785 19.37710744 3 27 C2.67 27 2.34 27 2 27 C1.67 20.07 1.34 13.14 1 6 C0.34 5.67 -0.32 5.34 -1 5 C-0.67 3.35 -0.34 1.7 0 0 Z " fill="#E1D2A9" transform="translate(597,378)"/>
<path d="M0 0 C0.99 0 1.98 0 3 0 C2.68853528 1.89600369 2.37578283 3.79179587 2.0625 5.6875 C1.88847656 6.74324219 1.71445312 7.79898437 1.53515625 8.88671875 C0.58541328 14.41186582 -0.69982329 18.89960816 -3 24 C-3.99 24 -4.98 24 -6 24 C-6 23.34 -6 22.68 -6 22 C-5.34 21.67 -4.68 21.34 -4 21 C-3.07904088 18.10229903 -3.07904088 18.10229903 -2.375 14.6875 C-2.11460937 13.53636719 -1.85421875 12.38523437 -1.5859375 11.19921875 C-0.87989762 7.88631324 -0.87989762 7.88631324 -1 4 C-0.7018576 2.65835921 -0.37756808 1.32148827 0 0 Z " fill="#33503E" transform="translate(579,261)"/>
<path d="M0 0 C0.33 0 0.66 0 1 0 C1.56618455 17.27911373 1.56618455 17.27911373 -2 24 C-2.66 24.33 -3.32 24.66 -4 25 C-3.24595285 16.55467195 -1.62171958 8.31258777 0 0 Z " fill="#49583D" transform="translate(477,260)"/>
<path d="M0 0 C0.66 0 1.32 0 2 0 C2.08564209 0.56509277 2.17128418 1.13018555 2.25952148 1.71240234 C2.64869818 4.26714633 3.04303485 6.82106747 3.4375 9.375 C3.57220703 10.26445312 3.70691406 11.15390625 3.84570312 12.0703125 C4.04389648 13.34648437 4.04389648 13.34648437 4.24609375 14.6484375 C4.36654053 15.43395996 4.4869873 16.21948242 4.61108398 17.02880859 C4.92238238 19.06611684 4.92238238 19.06611684 6 21 C6.06950541 22.54023996 6.08452357 24.08334988 6.0625 25.625 C6.05347656 26.44226563 6.04445313 27.25953125 6.03515625 28.1015625 C6.02355469 28.72804688 6.01195312 29.35453125 6 30 C4.4591145 27.16738317 3.5665406 24.60214433 2.9296875 21.4453125 C2.75566406 20.58292969 2.58164062 19.72054688 2.40234375 18.83203125 C2.22832031 17.93871094 2.05429687 17.04539062 1.875 16.125 C1.60236328 14.79662109 1.60236328 14.79662109 1.32421875 13.44140625 C0.42276141 8.89345231 -0.23080951 4.66235217 0 0 Z " fill="#DCCC9D" transform="translate(425,272)"/>
<path d="M0 0 C2.64 0 5.28 0 8 0 C8 0.66 8 1.32 8 2 C8.928125 1.79375 9.85625 1.5875 10.8125 1.375 C14 1 14 1 17 3 C13.24600202 4.2039337 9.66782588 4.09877617 5.75 4.0625 C4.48671875 4.05347656 3.2234375 4.04445313 1.921875 4.03515625 C0.95765625 4.02355469 -0.0065625 4.01195312 -1 4 C-0.67 2.68 -0.34 1.36 0 0 Z " fill="#F2F1DA" transform="translate(539,450)"/>
<path d="M0 0 C-0.60825035 4.34464536 -1.26167392 8.67551867 -2 13 C-4 9.25 -4 9.25 -4 7 C-4.99 7 -5.98 7 -7 7 C-8.71711243 9.44496043 -8.71711243 9.44496043 -10 12 C-10.66 11.67 -11.32 11.34 -12 11 C-11.06558465 9.72689688 -10.12732889 8.456612 -9.1875 7.1875 C-8.66542969 6.47980469 -8.14335937 5.77210938 -7.60546875 5.04296875 C-3.64244742 0 -3.64244742 0 0 0 Z " fill="#CBC092" transform="translate(423,200)"/>
<path d="M0 0 C4.68243632 7.02365448 3.57512883 17.68653379 2.5 25.75 C2.335 26.4925 2.17 27.235 2 28 C1.67 28 1.34 28 1 28 C0.67 21.4 0.34 14.8 0 8 C-0.33 8 -0.66 8 -1 8 C-1.125 2.25 -1.125 2.25 0 0 Z " fill="#495539" transform="translate(582,374)"/>
<path d="M0 0 C0.99 0 1.98 0 3 0 C3 0.66 3 1.32 3 2 C3.66 2 4.32 2 5 2 C5 2.99 5 3.98 5 5 C7.97 5 10.94 5 14 5 C14.33 5.99 14.66 6.98 15 8 C13.27014758 7.88487847 11.54111249 7.75744323 9.8125 7.625 C8.84957031 7.55539063 7.88664062 7.48578125 6.89453125 7.4140625 C3.98491062 6.99784147 1.67109226 6.20125904 -1 5 C-0.67 3.35 -0.34 1.7 0 0 Z " fill="#D2C095" transform="translate(497,201)"/>
<path d="M0 0 C0.33 0 0.66 0 1 0 C1.5330499 8.70648174 -0.24854088 17.74562263 -3 26 C-3.66 26 -4.32 26 -5 26 C-5.33 27.32 -5.66 28.64 -6 30 C-6.66 29.67 -7.32 29.34 -8 29 C-7.67386719 28.2471875 -7.34773437 27.494375 -7.01171875 26.71875 C-3.38806646 17.91081641 -1.48005934 9.37370915 0 0 Z " fill="#4A5435" transform="translate(600,258)"/>
<path d="M0 0 C0.66 0 1.32 0 2 0 C-0.95885573 6.39870771 -5.44165817 13.01893553 -12 16 C-12.042721 14.33388095 -12.04063832 12.66617115 -12 11 C-11 10 -11 10 -8.4375 9.9375 C-7.633125 9.958125 -6.82875 9.97875 -6 10 C-6 8.68 -6 7.36 -6 6 C-5.38125 5.938125 -4.7625 5.87625 -4.125 5.8125 C-1.72238859 5.171081 -1.72238859 5.171081 -0.75 2.4375 C-0.37875 1.2309375 -0.37875 1.2309375 0 0 Z " fill="#4C583F" transform="translate(572,287)"/>
<path d="M0 0 C5.28527476 0.53931375 9.33990517 1.53289097 14 4 C15.25 6.125 15.25 6.125 16 8 C16.99 8.33 17.98 8.66 19 9 C18.67 9.99 18.34 10.98 18 12 C17.18208984 11.43732422 17.18208984 11.43732422 16.34765625 10.86328125 C11.04694465 7.2660462 5.64951168 4.01841522 0 1 C0 0.67 0 0.34 0 0 Z " fill="#4B573B" transform="translate(567,199)"/>
<path d="M0 0 C1.93242285 3.34520258 2.5463853 6.44767482 3.125 10.25 C3.29257812 11.32765625 3.46015625 12.4053125 3.6328125 13.515625 C3.75398438 14.33546875 3.87515625 15.1553125 4 16 C0.94597912 14.47298956 0.34130519 12.04842088 -1 9 C-1 8.01 -1 7.02 -1 6 C-1.66 6 -2.32 6 -3 6 C-2.67 4.68 -2.34 3.36 -2 2 C-1.34 2 -0.68 2 0 2 C0 1.34 0 0.68 0 0 Z " fill="#DAC89D" transform="translate(423,298)"/>
<path d="M0 0 C8.89252296 -0.26197285 17.24996282 0.3960652 26 2 C26 2.33 26 2.66 26 3 C17.10456358 3.19865739 8.67089803 3.33447255 0 1 C0 0.67 0 0.34 0 0 Z " fill="#395137" transform="translate(498,331)"/>
<path d="M0 0 C2.29633824 3.44450737 2.54016485 5.93812283 3 10 C3.66 10 4.32 10 5 10 C4.67 13.3 4.34 16.6 4 20 C3.34 19.67 2.68 19.34 2 19 C1.62109375 16.78515625 1.62109375 16.78515625 1.4375 14.0625 C1.23198677 10.39324879 1.23198677 10.39324879 0 7 C-0.04022391 4.6670134 -0.04320247 2.33293334 0 0 Z " fill="#305144" transform="translate(430,312)"/>
<path d="M0 0 C0.33 0 0.66 0 1 0 C0.88541307 1.43836751 0.75790884 2.87570966 0.625 4.3125 C0.55539062 5.11300781 0.48578125 5.91351563 0.4140625 6.73828125 C0 9 0 9 -2 12 C-2.39387788 14.32387947 -2.73486085 16.65793749 -3 19 C-5.2577471 15.61337935 -5.14884938 14.1347817 -4.55859375 10.20703125 C-3.62412927 6.51491636 -1.88177164 3.29091226 0 0 Z " fill="#4D5A3D" transform="translate(584,302)"/>
<path d="M0 0 C12.01989891 -0.5683665 12.01989891 -0.5683665 16 3 C16 3.66 16 4.32 16 5 C10.72 3.68 5.44 2.36 0 1 C0 0.67 0 0.34 0 0 Z " fill="#46553C" transform="translate(550,194)"/>
<path d="M0 0 C0.33 0 0.66 0 1 0 C1.4390692 8.63502756 1.4390692 8.63502756 -2 13 C-2.99 13.495 -2.99 13.495 -4 14 C-3.46148032 8.72250715 -2.22656164 4.74354436 0 0 Z " fill="#49573B" transform="translate(472,286)"/>
<path d="M0 0 C0.80566406 0.00322266 1.61132812 0.00644531 2.44140625 0.00976562 C3.70404297 0.02233398 3.70404297 0.02233398 4.9921875 0.03515625 C5.84167969 0.03966797 6.69117188 0.04417969 7.56640625 0.04882812 C9.66669659 0.06062751 11.7669508 0.07856319 13.8671875 0.09765625 C13.8671875 0.75765625 13.8671875 1.41765625 13.8671875 2.09765625 C12.73539062 2.08605469 11.60359375 2.07445312 10.4375 2.0625 C8.95573081 2.05312171 7.47395985 2.04402155 5.9921875 2.03515625 C5.24582031 2.02677734 4.49945313 2.01839844 3.73046875 2.00976562 C-0.33126828 1.89077541 -0.33126828 1.89077541 -4.1328125 3.09765625 C-4.7928125 2.43765625 -5.4528125 1.77765625 -6.1328125 1.09765625 C-3.8362755 -0.05061225 -2.54968083 -0.0179555 0 0 Z M-6.1328125 3.09765625 C-4.1328125 4.09765625 -4.1328125 4.09765625 -4.1328125 4.09765625 Z " fill="#394E3F" transform="translate(436.1328125,456.90234375)"/>
<path d="M0 0 C-0.495 0.433125 -0.99 0.86625 -1.5 1.3125 C-3.33218192 2.99740483 -3.33218192 2.99740483 -3 6 C-6.37462715 5.45276317 -8.08235 4.9451 -11 3 C-11 2.34 -11 1.68 -11 1 C-7.26562152 0.12132271 -3.83225427 -0.08912219 0 0 Z " fill="#E5E0C6" transform="translate(552,433)"/>
<path d="M0 0 C-2.76280538 1.84187025 -4.80707826 2.72248277 -7.9375 3.6875 C-8.79214844 3.95949219 -9.64679687 4.23148437 -10.52734375 4.51171875 C-13.10510574 5.02075548 -14.54449337 4.84888744 -17 4 C-11.59275489 0.97194274 -6.17766384 -0.30134946 0 0 Z " fill="#4F5A3F" transform="translate(557,304)"/>
<path d="M0 0 C0.99 1.485 0.99 1.485 2 3 C2.66 2.67 3.32 2.34 4 2 C4.28571429 10.57142857 4.28571429 10.57142857 2 14 C1.67 12.35 1.34 10.7 1 9 C0.67 9 0.34 9 0 9 C0 6.03 0 3.06 0 0 Z " fill="#43533E" transform="translate(457,274)"/>
<path d="M0 0 C0.66 0 1.32 0 2 0 C2.53251766 1.91345327 3.05059483 3.8309295 3.5625 5.75 C3.85253906 6.81734375 4.14257812 7.8846875 4.44140625 8.984375 C4.97098494 11.84335927 4.98370862 13.31597383 4 16 C2.14223235 12.86501708 1.79859524 10.62528568 2 7 C1.34 7 0.68 7 0 7 C0 4.69 0 2.38 0 0 Z " fill="#D2C291" transform="translate(453,212)"/>
<path d="M0 0 C3.1087919 0.30878573 4.56644261 0.48371065 6.6171875 2.92578125 C7.03226562 3.71339844 7.44734375 4.50101563 7.875 5.3125 C8.30554688 6.09238281 8.73609375 6.87226563 9.1796875 7.67578125 C10.10121562 10.28677758 9.94771526 11.44350882 9 14 C8.68546875 13.40832031 8.3709375 12.81664062 8.046875 12.20703125 C5.66735376 7.81351764 3.29961953 3.78845205 0 0 Z " fill="#4A563C" transform="translate(464,203)"/>
<path d="M0 0 C1.9375 0.390625 1.9375 0.390625 4 1.25 C4.680625 1.52328125 5.36125 1.7965625 6.0625 2.078125 C8 3 8 3 11 5 C10.67 5.99 10.34 6.98 10 8 C10 7.34 10 6.68 10 6 C9.31292969 5.87882812 8.62585938 5.75765625 7.91796875 5.6328125 C7.01691406 5.46523438 6.11585938 5.29765625 5.1875 5.125 C4.29417969 4.96257812 3.40085937 4.80015625 2.48046875 4.6328125 C0 4 0 4 -3 2 C-2.01 1.34 -1.02 0.68 0 0 Z " fill="#43563C" transform="translate(547,337)"/>
<path d="M0 0 C2.83022097 3.99560608 1.76210446 7.42737323 1 12 C-0.65 12 -2.3 12 -4 12 C-4 11.34 -4 10.68 -4 10 C-3.01 10 -2.02 10 -1 10 C-1.01160156 9.36191406 -1.02320313 8.72382813 -1.03515625 8.06640625 C-1.04869141 6.82697266 -1.04869141 6.82697266 -1.0625 5.5625 C-1.07410156 4.73878906 -1.08570313 3.91507812 -1.09765625 3.06640625 C-1 1 -1 1 0 0 Z " fill="#ECD6A7" transform="translate(445,320)"/>
<path d="M0 0 C0.66 0 1.32 0 2 0 C3.35439668 2.70879335 3.06501451 5.00933268 3 8 C1.68 8.33 0.36 8.66 -1 9 C-1.125 2.25 -1.125 2.25 0 0 Z " fill="#305140" transform="translate(426,296)"/>
<path d="M0 0 C0.33 0 0.66 0 1 0 C1.33 4.29 1.66 8.58 2 13 C1.01 12.67 0.02 12.34 -1 12 C-1.33 12.66 -1.66 13.32 -2 14 C-2.05437607 12.41705218 -2.09296271 10.83355744 -2.125 9.25 C-2.14820313 8.36828125 -2.17140625 7.4865625 -2.1953125 6.578125 C-1.99139502 3.8864142 -1.36551721 2.30095026 0 0 Z " fill="#344F3E" transform="translate(424,276)"/>
<path d="M0 0 C1.2684375 0.12375 1.2684375 0.12375 2.5625 0.25 C3.2225 1.24 3.8825 2.23 4.5625 3.25 C1.5625 3.25 1.5625 3.25 -1.4375 2.25 C-1.1075 4.23 -0.7775 6.21 -0.4375 8.25 C-1.4275 8.25 -2.4175 8.25 -3.4375 8.25 C-3.47991723 5.91705225 -3.47842937 3.58297433 -3.4375 1.25 C-2.4375 0.25 -2.4375 0.25 0 0 Z " fill="#4B5A42" transform="translate(460.4375,198.75)"/>
<path d="M0 0 C2.4053919 3.39584739 2.00421508 6.08590998 1.484375 10 C0.94921513 12.20969237 0.08455824 14.00867996 -1 16 C-1.02692484 13.70839681 -1.04636124 11.41670454 -1.0625 9.125 C-1.07410156 7.84882813 -1.08570313 6.57265625 -1.09765625 5.2578125 C-1 2 -1 2 0 0 Z " fill="#CDB685" transform="translate(597,262)"/>
<path d="M0 0 C1.85329634 2.77994451 2.68563605 4.78256551 3.625 7.9375 C3.88539063 8.79214844 4.14578125 9.64679688 4.4140625 10.52734375 C5 13 5 13 5 17 C4.34 17 3.68 17 3 17 C2.67 13.7 2.34 10.4 2 7 C1.34 7 0.68 7 0 7 C0 4.69 0 2.38 0 0 Z " fill="#C7BD92" transform="translate(473,217)"/>
<path d="M0 0 C5.32697239 1.45281065 8.36402802 5.08111378 12 9 C11.67 9.66 11.34 10.32 11 11 C10.45730469 10.50628906 9.91460938 10.01257813 9.35546875 9.50390625 C8.64003906 8.86324219 7.92460938 8.22257813 7.1875 7.5625 C6.47980469 6.92441406 5.77210938 6.28632813 5.04296875 5.62890625 C3.00103848 3.80913988 3.00103848 3.80913988 0 3 C0 2.01 0 1.02 0 0 Z " fill="#555C3F" transform="translate(565,216)"/>
<path d="M0 0 C1.41655793 -0.0272415 2.83327045 -0.04650467 4.25 -0.0625 C5.43335938 -0.07990234 5.43335938 -0.07990234 6.640625 -0.09765625 C8.90691002 -0.00385306 10.8288895 0.36758937 13 1 C13 1.66 13 2.32 13 3 C13.99 3.33 14.98 3.66 16 4 C15.67 4.66 15.34 5.32 15 6 C14.33613281 5.72285156 13.67226563 5.44570312 12.98828125 5.16015625 C12.10527344 4.79792969 11.22226562 4.43570313 10.3125 4.0625 C9.44238281 3.70285156 8.57226562 3.34320313 7.67578125 2.97265625 C5.11820735 2.0429688 2.6778677 1.45837375 0 1 C0 0.67 0 0.34 0 0 Z " fill="#CBBD92" transform="translate(552,211)"/>
<path d="M0 0 C4.13105614 0.60750826 7.43299325 1.81115495 11 4 C11.875 6.1875 11.875 6.1875 12 8 C8.58846252 7.38530856 6.48230844 6.10488946 3.75 4 C3.04359375 3.46375 2.3371875 2.9275 1.609375 2.375 C1.07828125 1.92125 0.5471875 1.4675 0 1 C0 0.67 0 0.34 0 0 Z " fill="#E0CFA7" transform="translate(558,342)"/>
<path d="M0 0 C0.66 0.99 1.32 1.98 2 3 C1.3203125 5.26171875 1.3203125 5.26171875 0.125 7.6875 C-0.26429688 8.49574219 -0.65359375 9.30398438 -1.0546875 10.13671875 C-1.36664062 10.75160156 -1.67859375 11.36648438 -2 12 C-3.32 11.67 -4.64 11.34 -6 11 C-6 10.34 -6 9.68 -6 9 C-5.01 8.67 -4.02 8.34 -3 8 C-1.98245132 6.1346755 -1.98245132 6.1346755 -1.3125 3.9375 C-1.06113281 3.20402344 -0.80976562 2.47054688 -0.55078125 1.71484375 C-0.36902344 1.14894531 -0.18726563 0.58304687 0 0 Z " fill="#E5D8B6" transform="translate(594,416)"/>
<path d="M0 0 C1.76227952 2.64341928 3.19871008 5.23077235 4.625 8.0625 C5.07101562 8.94035156 5.51703125 9.81820313 5.9765625 10.72265625 C7 13 7 13 7 15 C6.34 15 5.68 15 5 15 C-0.74031891 5.77448747 -0.74031891 5.77448747 0 0 Z " fill="#DECFA3" transform="translate(579,333)"/>
<path d="M0 0 C1.32 0 2.64 0 4 0 C4 0.66 4 1.32 4 2 C4.66 2 5.32 2 6 2 C6 1.34 6 0.68 6 0 C7.32 0.66 8.64 1.32 10 2 C7.25 3.625 7.25 3.625 4 5 C1.625 4.1875 1.625 4.1875 0 3 C0 2.01 0 1.02 0 0 Z " fill="#D4BF8A" transform="translate(486,196)"/>
<path d="M0 0 C0.33 0 0.66 0 1 0 C1.33 2.97 1.66 5.94 2 9 C1.34 9 0.68 9 0 9 C0 10.65 0 12.3 0 14 C-0.66 13.67 -1.32 13.34 -2 13 C-2.05447047 11.58376784 -2.09300508 10.16691809 -2.125 8.75 C-2.14820313 7.96109375 -2.17140625 7.1721875 -2.1953125 6.359375 C-1.9828378 3.79268059 -1.28654105 2.2083933 0 0 Z " fill="#3A4C38" transform="translate(581,314)"/>
<path d="M0 0 C3 2 3 2 3.6875 4.625 C3.790625 5.40875 3.89375 6.1925 4 7 C2.68 7.33 1.36 7.66 0 8 C0 9.98 0 11.96 0 14 C-0.33 14 -0.66 14 -1 14 C-1.08333357 9.1666528 -0.95261487 4.76307437 0 0 Z " fill="#546751" transform="translate(419,218)"/>
<path d="M0 0 C1.32 0.33 2.64 0.66 4 1 C0.7 3.64 -2.6 6.28 -6 9 C-6.33 8.01 -6.66 7.02 -7 6 C-6.030625 5.38125 -5.06125 4.7625 -4.0625 4.125 C-0.97164638 2.34321154 -0.97164638 2.34321154 0 0 Z " fill="#DFDEC4" transform="translate(580,438)"/>
<path d="M0 0 C0.66 0 1.32 0 2 0 C2.33 1.32 2.66 2.64 3 4 C2.21625 4.433125 1.4325 4.86625 0.625 5.3125 C-2.21698375 6.89220247 -2.21698375 6.89220247 -4 10 C-4.66 9.67 -5.32 9.34 -6 9 C-5.05016642 7.49460339 -4.08988109 5.99579653 -3.125 4.5 C-2.59132813 3.6646875 -2.05765625 2.829375 -1.5078125 1.96875 C-0.76144531 0.99421875 -0.76144531 0.99421875 0 0 Z " fill="#DED2AF" transform="translate(580,411)"/>
<path d="M0 0 C0.66 0 1.32 0 2 0 C5 6.5 5 6.5 5 11 C4.34 11 3.68 11 3 11 C2.49384702 9.73160474 1.99530901 8.46016898 1.5 7.1875 C1.2215625 6.47980469 0.943125 5.77210938 0.65625 5.04296875 C0 3 0 3 0 0 Z " fill="#DED0A3" transform="translate(412,291)"/>
<path d="M0 0 C0.99 0.33 1.98 0.66 3 1 C3.99 0.67 4.98 0.34 6 0 C5.34 1.65 4.68 3.3 4 5 C4.66 5.33 5.32 5.66 6 6 C3 6 3 6 0 5 C0 3.33333333 0 1.66666667 0 0 Z " fill="#FBF0DB" transform="translate(490,441)"/>
<path d="M0 0 C0.66 0.99 1.32 1.98 2 3 C0.68 5.31 -0.64 7.62 -2 10 C-2.66 9.67 -3.32 9.34 -4 9 C-2.25 2.25 -2.25 2.25 0 0 Z " fill="#42533E" transform="translate(597,417)"/>
<path d="M0 0 C1.134375 0.020625 2.26875 0.04125 3.4375 0.0625 C2.4475 1.5475 2.4475 1.5475 1.4375 3.0625 C0.7775 2.7325 0.1175 2.4025 -0.5625 2.0625 C-0.5625 3.0525 -0.5625 4.0425 -0.5625 5.0625 C-1.5525 5.3925 -2.5425 5.7225 -3.5625 6.0625 C-3.94468767 4.40635343 -4.27645102 2.73792976 -4.5625 1.0625 C-3.5625 0.0625 -3.5625 0.0625 0 0 Z " fill="#EAC586" transform="translate(588.5625,287.9375)"/>
<path d="M0 0 C0.66 0.99 1.32 1.98 2 3 C1.67 3.33 1.34 3.66 1 4 C1 4.99 1 5.98 1 7 C0.01 8.485 0.01 8.485 -1 10 C-1.99 10 -2.98 10 -4 10 C-2.66666667 6.66666667 -1.33333333 3.33333333 0 0 Z " fill="#CCBB89" transform="translate(578,278)"/>
<path d="M0 0 C3.74525799 3.74525799 3.68909949 7.98270909 4 13 C2 12 2 12 0.875 8.75 C0.14536518 5.62299365 -0.19234975 3.17377095 0 0 Z " fill="#CCBA8D" transform="translate(595,227)"/>
<path d="M0 0 C0.66 0.99 1.32 1.98 2 3 C0.35 6.3 -1.3 9.6 -3 13 C-3.66 13 -4.32 13 -5 13 C-3.58192622 8.52761347 -1.88695626 4.28853694 0 0 Z " fill="#485639" transform="translate(460,317)"/>
<path d="M0 0 C1.125 3.75 1.125 3.75 0 6 C1.65 5.67 3.3 5.34 5 5 C4.34 6.98 3.68 8.96 3 11 C1.68 9.68 0.36 8.36 -1 7 C-1.33 7.99 -1.66 8.98 -2 10 C-1.54177532 6.53058454 -1.10868317 3.32604951 0 0 Z " fill="#525D42" transform="translate(423,201)"/>
<path d="M0 0 C0.66 0 1.32 0 2 0 C0.79618552 2.49361571 -0.45428722 4.68143083 -2 7 C-2.99 7 -3.98 7 -5 7 C-4.67 5.35 -4.34 3.7 -4 2 C-2.68 2 -1.36 2 0 2 C0 1.34 0 0.68 0 0 Z " fill="#3C5036" transform="translate(415,202)"/>
<path d="M0 0 C0 0.66 0 1.32 0 2 C-1.55759343 2.53532823 -3.12138045 3.05265378 -4.6875 3.5625 C-5.55761719 3.85253906 -6.42773438 4.14257812 -7.32421875 4.44140625 C-10.24631074 5.05141961 -12.14400553 4.77703633 -15 4 C-15 3.67 -15 3.34 -15 3 C-12.87562952 2.49733206 -10.75048274 1.9979439 -8.625 1.5 C-7.44164062 1.2215625 -6.25828125 0.943125 -5.0390625 0.65625 C-2 0 -2 0 0 0 Z " fill="#5D6B57" transform="translate(567,450)"/>
<path d="M0 0 C1.36125 0.12375 1.36125 0.12375 2.75 0.25 C0.75 3.25 0.75 3.25 -1.1953125 3.76171875 C-1.91460938 3.81972656 -2.63390625 3.87773437 -3.375 3.9375 C-5.293125 4.0921875 -5.293125 4.0921875 -7.25 4.25 C-4.83923194 1.28290085 -3.90322061 0.30024774 0 0 Z " fill="#F1EBD4" transform="translate(564.25,447.75)"/>
<path d="M0 0 C0.99 0.33 1.98 0.66 3 1 C1.68 4.3 0.36 7.6 -1 11 C-1.99 11 -2.98 11 -4 11 C-4 10.34 -4 9.68 -4 9 C-3.34 8.67 -2.68 8.34 -2 8 C-1.31527335 6.11235097 -1.31527335 6.11235097 -0.875 3.9375 C-0.70742188 3.20402344 -0.53984375 2.47054688 -0.3671875 1.71484375 C-0.24601563 1.14894531 -0.12484375 0.58304687 0 0 Z " fill="#45543A" transform="translate(577,274)"/>
<path d="M0 0 C0 0.99 0 1.98 0 3 C-1.093125 3.12375 -2.18625 3.2475 -3.3125 3.375 C-7.07381802 3.75464801 -7.07381802 3.75464801 -10 6 C-9.67 4.35 -9.34 2.7 -9 1 C-4.545 0.505 -4.545 0.505 0 0 Z " fill="#455941" transform="translate(443,193)"/>
<path d="M0 0 C4.75207471 -0.43200679 7.78210698 1.01510917 12 3 C11.67 3.99 11.34 4.98 11 6 C7.37 4.35 3.74 2.7 0 1 C0 0.67 0 0.34 0 0 Z " fill="#DCCCA3" transform="translate(544,335)"/>
<path d="M0 0 C0.66 0.33 1.32 0.66 2 1 C0.375 8.75 0.375 8.75 -3 11 C-2.69078116 9.54096742 -2.37751201 8.08279278 -2.0625 6.625 C-1.88847656 5.81289063 -1.71445312 5.00078125 -1.53515625 4.1640625 C-1 2 -1 2 0 0 Z " fill="#DBCE9E" transform="translate(472,277)"/>
<path d="M0 0 C6.625 -0.25 6.625 -0.25 10 2 C9.67 2.33 9.34 2.66 9 3 C7.47480724 2.91062197 5.95318071 2.75462854 4.4375 2.5625 C3.19806641 2.40974609 3.19806641 2.40974609 1.93359375 2.25390625 C1.29550781 2.17011719 0.65742187 2.08632813 0 2 C0 1.34 0 0.68 0 0 Z " fill="#F8CE9E" transform="translate(534,329)"/>
<path d="M0 0 C2.18975773 3.28463659 2.99806563 6.20696275 4 10 C2.68 9.67 1.36 9.34 0 9 C0 6.03 0 3.06 0 0 Z " fill="#525C42" transform="translate(412,294)"/>
<path d="M0 0 C5.94 0.33 11.88 0.66 18 1 C18 1.33 18 1.66 18 2 C15.3755252 2.24809955 12.75232855 2.4741699 10.125 2.6875 C9.37863281 2.76033203 8.63226563 2.83316406 7.86328125 2.90820312 C5.6953125 3.07421875 5.6953125 3.07421875 2 3 C1.34 2.01 0.68 1.02 0 0 Z " fill="#CAC09F" transform="translate(482,193)"/>
<path d="M0 0 C2.64 0 5.28 0 8 0 C8 0.66 8 1.32 8 2 C3.545 2.495 3.545 2.495 -1 3 C-0.67 2.01 -0.34 1.02 0 0 Z " fill="#F8EDD2" transform="translate(539,450)"/>
<path d="M0 0 C0.33 0.99 0.66 1.98 1 3 C0.01 3.99 -0.98 4.98 -2 6 C-2.99 5.67 -3.98 5.34 -5 5 C-4 2 -4 2 -1.9375 0.8125 C-1.298125 0.544375 -0.65875 0.27625 0 0 Z " fill="#3E5446" transform="translate(572,447)"/>
<path d="M0 0 C1.98362069 2.91708924 1.9876191 4.12380904 1.625 7.75 C1.41875 8.8225 1.2125 9.895 1 11 C0.67 11 0.34 11 0 11 C-0.19406478 9.35492782 -0.38007935 7.70890406 -0.5625 6.0625 C-0.66691406 5.14597656 -0.77132812 4.22945313 -0.87890625 3.28515625 C-0.91886719 2.53105469 -0.95882812 1.77695312 -1 1 C-0.67 0.67 -0.34 0.34 0 0 Z " fill="#D3C49E" transform="translate(598,372)"/>
<path d="M0 0 C0.99 0.33 1.98 0.66 3 1 C4.03039555 5.53374042 4.17766075 6.64467851 2 11 C1.34 7.37 0.68 3.74 0 0 Z " fill="#4D5F49" transform="translate(428,318)"/>
<path d="M0 0 C1.99097846 2.98646769 2.94124926 5.59687262 4 9 C3.01 9 2.02 9 1 9 C1 7.68 1 6.36 1 5 C0.34 5 -0.32 5 -1 5 C-0.67 3.35 -0.34 1.7 0 0 Z " fill="#4B5B42" transform="translate(420,315)"/>
<path d="M0 0 C0.66 0 1.32 0 2 0 C3.62950412 4.12168689 4.26264601 6.70700357 3 11 C0.43383368 7.15075052 0.44902324 4.5650696 0 0 Z " fill="#D8CDA0" transform="translate(431,304)"/>
<path d="M0 0 C0.99 0 1.98 0 3 0 C3 2.64 3 5.28 3 8 C2.01 8.495 2.01 8.495 1 9 C0.67 6.03 0.34 3.06 0 0 Z " fill="#F0C481" transform="translate(590,240)"/>
<path d="M0 0 C0.99 0.33 1.98 0.66 3 1 C1.02 1.99 1.02 1.99 -1 3 C-1 3.66 -1 4.32 -1 5 C-1.66 5 -2.32 5 -3 5 C-3.33 5.99 -3.66 6.98 -4 8 C-4.33 7.01 -4.66 6.02 -5 5 C-3.35 3.35 -1.7 1.7 0 0 Z " fill="#3E5041" transform="translate(585,437)"/>
<path d="M0 0 C0.99 0 1.98 0 3 0 C2.67 1.98 2.34 3.96 2 6 C1.01 6 0.02 6 -1 6 C-1.042721 4.33388095 -1.04063832 2.66617115 -1 1 C-0.67 0.67 -0.34 0.34 0 0 Z " fill="#F7D7A4" transform="translate(591,377)"/>
<path d="M0 0 C4 1 4 1 5.8125 3.375 C7 6 7 6 6 9 C4.02 6.03 2.04 3.06 0 0 Z " fill="#DCCEA5" transform="translate(570,352)"/>
<path d="M0 0 C1.32 0 2.64 0 4 0 C4 0.66 4 1.32 4 2 C4.66 2.33 5.32 2.66 6 3 C5 4 5 4 2.4375 4.0625 C1.2309375 4.0315625 1.2309375 4.0315625 0 4 C0 2.68 0 1.36 0 0 Z " fill="#2F5249" transform="translate(433,333)"/>
<path d="M0 0 C0 0.99 0 1.98 0 3 C-3.3 2.67 -6.6 2.34 -10 2 C-10 1.67 -10 1.34 -10 1 C-6.56484998 0.37542727 -3.50935186 0 0 0 Z " fill="#DAC7A3" transform="translate(544,332)"/>
<path d="M0 0 C0.66 0 1.32 0 2 0 C2 2.64 2 5.28 2 8 C1.01 7.67 0.02 7.34 -1 7 C-0.67 4.69 -0.34 2.38 0 0 Z " fill="#395343" transform="translate(451,312)"/>
<path d="M0 0 C0.93423645 3.01031744 1.04449911 3.86650268 0 7 C-2.0625 8.1875 -2.0625 8.1875 -4 9 C-3.35455571 5.51460083 -1.89865603 2.97180943 0 0 Z " fill="#E4D0A1" transform="translate(469,289)"/>
<path d="M0 0 C0.99 0 1.98 0 3 0 C3.69289369 3.72430357 4.11144596 7.21083746 4 11 C2.03698408 7.49461443 1.04097612 3.86648272 0 0 Z " fill="#465238" transform="translate(474,218)"/>
<path d="M0 0 C0.6875 1.8125 0.6875 1.8125 1 4 C-0.84159673 6.48615558 -2.00470711 7.00156904 -5 8 C-4.1875 5.5625 -4.1875 5.5625 -3 3 C-2.01 2.67 -1.02 2.34 0 2 C0 1.34 0 0.68 0 0 Z " fill="#D7CA98" transform="translate(413,210)"/>
<path d="M0 0 C-1.65 1.65 -3.3 3.3 -5 5 C-5.66 3.68 -6.32 2.36 -7 1 C-3.375 -1.125 -3.375 -1.125 0 0 Z " fill="#E3E0CB" transform="translate(497,439)"/>
<path d="M0 0 C0.66 0 1.32 0 2 0 C1.4140625 6.15234375 1.4140625 6.15234375 1 8 C0.01 8.495 0.01 8.495 -1 9 C-0.67 6.03 -0.34 3.06 0 0 Z " fill="#E7D2A0" transform="translate(450,304)"/>
<path d="M0 0 C1.98 1.65 3.96 3.3 6 5 C5.67 5.66 5.34 6.32 5 7 C4.34 7 3.68 7 3 7 C3 6.34 3 5.68 3 5 C2.34 5 1.68 5 1 5 C0.67 3.35 0.34 1.7 0 0 Z " fill="#D3BB92" transform="translate(581,208)"/>
<path d="M0 0 C0.99 0.33 1.98 0.66 3 1 C3 2.98 3 4.96 3 7 C2.01 7 1.02 7 0 7 C0 4.69 0 2.38 0 0 Z " fill="#375442" transform="translate(422,208)"/>
<path d="M0 0 C1.32 0 2.64 0 4 0 C3 3 3 3 0.9375 4.1875 C0.298125 4.455625 -0.34125 4.72375 -1 5 C-1.33 4.34 -1.66 3.68 -2 3 C-1.34 2.01 -0.68 1.02 0 0 Z " fill="#3F5641" transform="translate(567,422)"/>
<path d="M0 0 C2 3 2 3 2 7 C1.01 7.33 0.02 7.66 -1 8 C-1.125 2.25 -1.125 2.25 0 0 Z " fill="#4B5C46" transform="translate(582,374)"/>
<path d="M0 0 C1.98 1.65 3.96 3.3 6 5 C5.01 5.66 4.02 6.32 3 7 C1.5 5.75 1.5 5.75 0 4 C0 2.68 0 1.36 0 0 Z " fill="#4A543B" transform="translate(565,348)"/>
<path d="M0 0 C2.475 0.495 2.475 0.495 5 1 C4.34 2.32 3.68 3.64 3 5 C2.01 5 1.02 5 0 5 C0 3.35 0 1.7 0 0 Z " fill="#D8CBA5" transform="translate(451,326)"/>
<path d="M0 0 C0.33 0.66 0.66 1.32 1 2 C1.66 2.33 2.32 2.66 3 3 C2.34 3 1.68 3 1 3 C1 4.98 1 6.96 1 9 C0.34 8.67 -0.32 8.34 -1 8 C-1.125 2.25 -1.125 2.25 0 0 Z " fill="#D2CDA8" transform="translate(491,316)"/>
<path d="M0 0 C1.125 1.75 1.125 1.75 2 4 C1.125 6.25 1.125 6.25 0 8 C-0.66 7.67 -1.32 7.34 -2 7 C-1.125 2.25 -1.125 2.25 0 0 Z " fill="#E2C389" transform="translate(452,208)"/>
</svg>
